<?xml version="1.0" encoding="utf-8"?>
<!-- Generator: Adobe Illustrator 27.0.0, SVG Export Plug-In . SVG Version: 6.00 Build 0)  -->
<svg version="1.1" id="Layer_1" xmlns="http://www.w3.org/2000/svg" xmlns:xlink="http://www.w3.org/1999/xlink" x="0px" y="0px"
	 viewBox="0 0 579 209" style="enable-background:new 0 0 579 209;" xml:space="preserve">
<style type="text/css">
	.st0{fill:#FFFFFF;}
	.st1{fill:#AD2A0C;}
	.st2{fill:#EB721F;}
	.st3{fill:#F29418;}
</style>
<g>
	<g>
		<path class="st0" d="M142.8,79.7v1.2c0.1,4.7-1,8-3.2,10c-2.3,2-6.1,3-11.4,3c-5.7,0-9.7-1.1-12.1-3.2c-2.3-2.2-3.5-5.9-3.5-11.1
			V67.2c0-5.3,1.2-9,3.5-11.2s6.4-3.2,12.1-3.2c5,0,8.6,1,11,3c2.3,1.9,3.4,4.7,3.3,8.4v2h-10.1V65c0-2.1-0.3-3.6-1-4.7
			c-0.7-1-1.8-1.5-3.3-1.5c-1.9,0-3.3,0.6-4.1,1.8c-0.8,1.2-1.3,3.1-1.3,5.8v12.3c0,3.5,0.4,5.9,1.2,7.2c0.8,1.4,2.2,2,4.2,2
			c1.6,0,2.7-0.6,3.5-1.7c0.8-1.2,1.1-2.9,1.1-5.3v-1.2L142.8,79.7L142.8,79.7z"/>
		<path class="st0" d="M147.1,53.4h10.2v16.5h9.7V53.4h10.2v39.9H167V75.8h-9.7v17.5h-10.2V53.4z"/>
		<path class="st0" d="M213.6,82.1c0,3.9-1.3,6.9-3.8,8.9s-6.4,2.9-11.5,2.9s-8.9-1-11.5-2.9c-2.5-2-3.8-4.9-3.8-8.9V53.3h10.1v29.3
			c0,2,0.4,3.4,1.1,4.1c0.8,0.8,2.1,1.2,4.1,1.2s3.3-0.4,4.1-1.2c0.8-0.8,1.1-2.2,1.1-4.1V53.3h10.1L213.6,82.1L213.6,82.1
			L213.6,82.1z"/>
		<path class="st0" d="M219,53.4h14.9c5.3,0,9.1,0.8,11.4,2.4c2.3,1.6,3.4,4.2,3.4,8c0,4.2-1.1,7.1-3.5,8.5
			c-1.1,0.7-2.9,1.3-5.3,1.7h0.6c2.8,0,4.9,0.7,6.3,2.2s2.1,3.6,1.9,6.3c-0.1,1.5-0.1,3.2-0.1,4.8c0,1.7,0.1,3.1,0.2,3.9
			c0.1,0.9,0.2,1.6,0.4,2h-10.1c-0.2-0.4-0.3-1.1-0.4-2s-0.1-2.2-0.1-4v-4.8c0-2-0.4-3.4-1.4-4.2c-1-0.8-2.7-1.2-5.1-1.2h-3v16.3
			h-10.2L219,53.4L219,53.4L219,53.4z M229.2,70.9h2.8c2.6,0,4.4-0.4,5.3-1.2c0.9-0.8,1.3-2.3,1.3-4.7c0-2.2-0.5-3.7-1.4-4.5
			s-2.7-1.2-5.2-1.2h-2.8L229.2,70.9L229.2,70.9L229.2,70.9z"/>
		<path class="st0" d="M282.7,79.7v1.2c0.1,4.7-1,8-3.2,10c-2.3,2-6.1,3-11.4,3c-5.7,0-9.7-1.1-12.1-3.2c-2.3-2.2-3.5-5.9-3.5-11.1
			V67.2c0-5.3,1.2-9,3.5-11.2s6.4-3.2,12.1-3.2c5,0,8.6,1,11,3c2.3,1.9,3.4,4.7,3.3,8.4v2h-10.1V65c0-2.1-0.3-3.6-1-4.7
			c-0.7-1-1.8-1.5-3.3-1.5c-1.9,0-3.3,0.6-4.1,1.8c-0.8,1.2-1.3,3.1-1.3,5.8v12.3c0,3.5,0.4,5.9,1.2,7.2c0.8,1.4,2.2,2,4.2,2
			c1.6,0,2.7-0.6,3.5-1.7c0.8-1.2,1.1-2.9,1.1-5.3v-1.2L282.7,79.7L282.7,79.7z"/>
		<path class="st0" d="M286.9,53.4h10.2v16.5h9.7V53.4H317v39.9h-10.2V75.8h-9.7v17.5h-10.2V53.4L286.9,53.4z"/>
		<path class="st0" d="M338.6,90.8c-2.3-2-3.5-5.5-3.5-10.5V63.9c0-3.7,1.3-6.5,3.9-8.3s6.4-2.8,11.6-2.8s9,0.9,11.6,2.8
			c2.6,1.9,3.9,4.6,3.9,8.3v16.4c0,5-1.2,8.5-3.5,10.5s-6.3,3.1-12,3.1S340.9,92.9,338.6,90.8L338.6,90.8z M354.7,86.3
			c0.8-1.1,1.2-2.9,1.2-5.6V64.2c0-1.8-0.5-3.2-1.4-4.1c-0.9-0.9-2.2-1.4-4-1.4c-1.7,0-3.1,0.5-3.9,1.4c-0.9,0.9-1.3,2.3-1.3,4.1
			v16.4c0,2.7,0.4,4.6,1.2,5.6c0.8,1.1,2.2,1.6,4.1,1.6C352.6,87.9,354,87.4,354.7,86.3L354.7,86.3z"/>
		<path class="st0" d="M371.7,93.3V53.4h23.8v5.9h-13.6v10.9h12.9v5.9h-12.9v17.2C381.8,93.3,371.7,93.3,371.7,93.3z"/>
		<path class="st0" d="M427.4,93.9c-5.7,0-9.7-1.2-12-3.6s-3.4-6.6-3.4-12.7v-9.5c0-5.5,1.3-9.4,3.9-11.8c2.6-2.4,6.7-3.6,12.5-3.6
			c5.1,0,8.8,1,11.2,2.9c2.4,2,3.6,4.9,3.4,8.8v1.2h-10.1v-1.2c0-1.9-0.4-3.4-1.2-4.3c-0.9-1-2.2-1.4-3.9-1.4c-2.1,0-3.5,0.7-4.4,2
			c-0.8,1.3-1.2,3.6-1.2,7v9.5c0,4.4,0.4,7.2,1.2,8.6s2.4,2.1,4.8,2.1c1,0,2.5-0.2,4.7-0.6v-9.2h-4.7v-5.9h14.9v20.2
			C437.7,93.3,432.4,93.9,427.4,93.9L427.4,93.9z"/>
		<path class="st0" d="M451.9,90.8c-2.3-2-3.5-5.5-3.5-10.5V63.9c0-3.7,1.3-6.5,3.9-8.3c2.6-1.9,6.4-2.8,11.6-2.8s9,0.9,11.6,2.8
			c2.6,1.9,3.9,4.6,3.9,8.3v16.4c0,5-1.2,8.5-3.5,10.5s-6.3,3.1-12,3.1S454.2,92.9,451.9,90.8z M468,86.3c0.8-1.1,1.2-2.9,1.2-5.6
			V64.2c0-1.8-0.5-3.2-1.4-4.1c-0.9-0.9-2.2-1.4-4-1.4c-1.7,0-3.1,0.5-3.9,1.4c-0.9,0.9-1.3,2.3-1.3,4.1v16.4c0,2.7,0.4,4.6,1.2,5.6
			c0.8,1.1,2.2,1.6,4.1,1.6C465.8,87.9,467.2,87.4,468,86.3z"/>
		<path class="st0" d="M485.1,53.4h13.4c6.4,0,10.9,1,13.7,3c2.7,2,4.1,5.4,4.1,10.2v11.2c0,6-1.2,10.1-3.6,12.3
			c-2.4,2.2-6.9,3.3-13.6,3.3h-14L485.1,53.4L485.1,53.4z M495.3,87.3h2.7c3.2,0,5.3-0.5,6.4-1.6c1.1-1,1.7-3.1,1.7-6.1V66.5
			c0-2.7-0.6-4.6-1.9-5.6s-3.5-1.5-6.8-1.5h-2.2L495.3,87.3L495.3,87.3L495.3,87.3z"/>
	</g>
	<g>
		<path class="st0" d="M112.1,102.1h8.9c3.2,0,5.4,0.4,6.8,1.3c1.4,0.8,2,2.3,2,4.2c0,2.3-0.7,3.8-2.1,4.6c-0.7,0.4-1.7,0.7-3.2,0.9
			h0.3c1.6,0,2.9,0.4,3.7,1.2s1.2,1.9,1.1,3.3c0,0.8-0.1,1.7,0,2.6c0,0.9,0.1,1.6,0.1,2.1c0.1,0.5,0.1,0.8,0.3,1.1h-6
			c-0.1-0.2-0.2-0.6-0.2-1.1s-0.1-1.2-0.1-2.1v-2.6c0-1.1-0.3-1.8-0.8-2.3c-0.6-0.4-1.6-0.7-3.1-0.7H118v8.7h-6.1v-21.2H112.1z
			 M118.2,111.4h1.7c1.6,0,2.6-0.2,3.1-0.6s0.8-1.2,0.8-2.5c0-1.2-0.3-2-0.8-2.4c-0.6-0.4-1.6-0.6-3.1-0.6h-1.7V111.4L118.2,111.4
			L118.2,111.4z"/>
		<path class="st0" d="M138,102.1h7.1l6.7,21.3H146l-1.2-4.6h-6.4l-1.2,4.6h-5.8L138,102.1z M139.1,115.6h4.9l-2.4-9.5l0,0
			L139.1,115.6z"/>
		<path class="st0" d="M154.1,123.3V102h6.1v18.1h7.7v3.2L154.1,123.3L154.1,123.3z"/>
		<path class="st0" d="M170.1,123.3V102h14.8v3.2h-8.7v5.6h8.4v3.2h-8.4v6.1h8.9v3.2L170.1,123.3L170.1,123.3L170.1,123.3z"/>
		<path class="st0" d="M187.4,102.1h6.1v21.3h-6.1V102.1z"/>
		<path class="st0" d="M205.6,123.7c-3.4,0-5.8-0.6-7.1-1.9c-1.3-1.3-2-3.5-2-6.7v-5c0-2.9,0.8-5,2.3-6.3s4-1.9,7.4-1.9
			c3,0,5.2,0.5,6.7,1.6c1.5,1,2.1,2.6,2,4.7v0.6h-6V108c0-1-0.2-1.8-0.7-2.3s-1.3-0.8-2.3-0.8c-1.2,0-2.1,0.4-2.6,1
			c-0.5,0.7-0.7,1.9-0.7,3.7v5c0,2.3,0.2,3.8,0.7,4.6c0.5,0.7,1.4,1.1,2.9,1.1c0.6,0,1.5-0.1,2.8-0.3v-4.9h-2.8v-3.2h8.8v10.7
			C211.7,123.4,208.6,123.6,205.6,123.7L205.6,123.7L205.6,123.7z"/>
		<path class="st0" d="M218.3,102.1h6.1v8.8h5.8v-8.8h6.1v21.3h-6.1V114h-5.8v9.3h-6.1V102.1L218.3,102.1z"/>
		<path class="st0" d="M238.4,126.2l1.2-6.9h5.3l-2.8,6.9H238.4z"/>
		<path class="st0" d="M259.6,123.3h-5V102h8.9l5.1,17.9V102h5v21.3h-8.9l-5.2-18.1L259.6,123.3L259.6,123.3L259.6,123.3z"/>
		<path class="st0" d="M278.8,122c-1.4-1.1-2.1-2.9-2.1-5.6v-8.8c0-2,0.8-3.5,2.3-4.4c1.5-1,3.8-1.5,6.9-1.5s5.4,0.5,6.9,1.5
			s2.3,2.5,2.3,4.4v8.8c0,2.6-0.7,4.5-2.1,5.6s-3.8,1.6-7.1,1.6C282.5,123.7,280.2,123.1,278.8,122z M288.4,119.6
			c0.5-0.6,0.7-1.6,0.7-3v-8.8c0-1-0.3-1.7-0.8-2.2s-1.3-0.7-2.4-0.7s-1.8,0.2-2.3,0.7s-0.8,1.2-0.8,2.2v8.8c0,1.4,0.2,2.4,0.7,3
			s1.3,0.8,2.4,0.8C287.1,120.5,287.9,120.2,288.4,119.6z"/>
		<path class="st0" d="M298.2,102.1h8.9c3.2,0,5.4,0.4,6.8,1.3c1.4,0.8,2,2.3,2,4.2c0,2.3-0.7,3.8-2.1,4.6c-0.7,0.4-1.7,0.7-3.2,0.9
			h0.3c1.6,0,2.9,0.4,3.7,1.2s1.2,1.9,1.1,3.3c0,0.8-0.1,1.7,0,2.6c0,0.9,0.1,1.6,0.1,2.1c0.1,0.5,0.1,0.8,0.3,1.1h-6
			c-0.1-0.2-0.2-0.6-0.2-1.1s-0.1-1.2-0.1-2.1v-2.6c0-1.1-0.3-1.8-0.8-2.3c-0.6-0.4-1.6-0.7-3.1-0.7h-1.8v8.7H298L298.2,102.1
			L298.2,102.1L298.2,102.1z M304.2,111.4h1.7c1.6,0,2.6-0.2,3.1-0.6s0.8-1.2,0.8-2.5c0-1.2-0.3-2-0.8-2.4c-0.6-0.4-1.6-0.6-3.1-0.6
			h-1.7V111.4L304.2,111.4L304.2,111.4z"/>
		<path class="st0" d="M323.3,105.2h-6.4V102h18.8v3.2h-6.4v18.1h-6.1L323.3,105.2L323.3,105.2L323.3,105.2z"/>
		<path class="st0" d="M337.8,102.1h6.1v8.8h5.8v-8.8h6.1v21.3h-6.1V114h-5.8v9.3h-6.1V102.1L337.8,102.1z"/>
		<path class="st0" d="M384.2,116.1v0.6c0.1,2.5-0.6,4.3-1.9,5.3s-3.6,1.6-6.8,1.6c-3.4,0-5.8-0.6-7.2-1.7c-1.4-1.1-2.1-3.1-2.1-5.9
			v-6.6c0-2.8,0.7-4.8,2.1-6c1.4-1.1,3.8-1.7,7.2-1.7c2.9,0,5.1,0.5,6.6,1.6c1.3,1,2,2.5,2,4.5v1h-6v-0.6c0-1.1-0.2-1.9-0.6-2.5
			c-0.4-0.5-1.1-0.8-1.9-0.8c-1.1,0-1.9,0.3-2.4,0.9s-0.8,1.7-0.8,3.1v6.6c0,1.8,0.2,3.1,0.7,3.9c0.5,0.7,1.3,1.1,2.5,1.1
			c0.9,0,1.6-0.3,2.1-0.9s0.7-1.5,0.6-2.8v-0.6L384.2,116.1L384.2,116.1L384.2,116.1z"/>
		<path class="st0" d="M392.2,102.1h7.1l6.7,21.3h-5.8l-1.2-4.6h-6.5l-1.2,4.6h-5.8L392.2,102.1z M393.3,115.6h4.9l-2.4-9.5l0,0
			L393.3,115.6L393.3,115.6z"/>
		<path class="st0" d="M407.9,102.1h8.9c3.2,0,5.4,0.4,6.8,1.3c1.4,0.8,2,2.3,2,4.2c0,2.3-0.7,3.8-2.1,4.6c-0.7,0.4-1.7,0.7-3.2,0.9
			h0.3c1.6,0,2.9,0.4,3.7,1.2s1.2,1.9,1.1,3.3c0,0.8-0.1,1.7,0,2.6c0,0.9,0.1,1.6,0.1,2.1c0.1,0.5,0.1,0.8,0.3,1.1h-6
			c-0.1-0.2-0.2-0.6-0.2-1.1s-0.1-1.2-0.1-2.1v-2.6c0-1.1-0.3-1.8-0.8-2.3c-0.6-0.4-1.6-0.7-3.1-0.7h-1.8v8.7h-6.1L407.9,102.1
			L407.9,102.1L407.9,102.1z M414,111.4h1.7c1.6,0,2.6-0.2,3.1-0.6s0.8-1.2,0.8-2.5c0-1.2-0.3-2-0.8-2.4c-0.6-0.4-1.6-0.6-3.1-0.6
			H414V111.4L414,111.4L414,111.4z"/>
		<path class="st0" d="M430.1,122c-1.4-1.1-2.1-2.9-2.1-5.6v-8.8c0-2,0.8-3.5,2.3-4.4c1.5-1,3.8-1.5,6.9-1.5s5.4,0.5,6.9,1.5
			s2.3,2.5,2.3,4.4v8.8c0,2.6-0.7,4.5-2.1,5.6c-1.4,1.1-3.8,1.6-7.1,1.6S431.5,123.1,430.1,122z M439.7,119.6c0.5-0.6,0.7-1.6,0.7-3
			v-8.8c0-1-0.3-1.7-0.8-2.2s-1.3-0.7-2.4-0.7s-1.8,0.2-2.3,0.7s-0.8,1.2-0.8,2.2v8.8c0,1.4,0.2,2.4,0.7,3s1.3,0.8,2.4,0.8
			C438.4,120.5,439.3,120.2,439.7,119.6z"/>
		<path class="st0" d="M449.9,123.3V102h6.1v18.1h7.7v3.2L449.9,123.3L449.9,123.3z"/>
		<path class="st0" d="M465.6,102.1h6.1v21.3h-6.1V102.1z"/>
		<path class="st0" d="M479.9,123.3h-5V102h8.9l5.1,17.9V102h5v21.3H485l-5.2-18.1v18.1H479.9z"/>
		<path class="st0" d="M502.7,102.1h7.1l6.7,21.3h-5.8l-1.2-4.6h-6.4l-1.2,4.6h-5.8L502.7,102.1L502.7,102.1z M503.9,115.6h4.9
			l-2.4-9.5l0,0L503.9,115.6L503.9,115.6z"/>
	</g>
	<polygon class="st1" points="579,138.9 579,171.8 35.1,171.8 52.5,138.9 	"/>
	<polygon class="st2" points="34.9,138.9 17.6,171.8 30.9,171.8 48.3,138.9 	"/>
	<polygon class="st3" points="17.4,138.9 0,171.8 13.4,171.8 30.7,138.9 	"/>
	
		<image style="overflow:visible;enable-background:new    ;" width="937" height="910" xlink:href="EA9E1D6A.png"  transform="matrix(0.1146 0 0 0.1146 0 37.3867)">
	</image>
	<g>
		<path class="st0" d="M117,158.1c-0.1,0.5-0.2,0.9-0.2,1.2c-0.1,0.4-0.1,0.7-0.2,1c0,0.2,0.1,0.3,0.3,0.4l1.5,0.4l-0.1,0.6
			c-1.4,0-2.6,0-3.7,0c-1.2,0-2.4,0-3.5,0l0.1-0.6l1.5-0.4c0.2-0.1,0.3-0.2,0.4-0.4c0.1-0.3,0.1-0.6,0.2-1c0.1-0.4,0.2-0.8,0.3-1.3
			l1.7-9.1c0.1-0.4,0.1-0.7,0.2-1.1s0.1-0.6,0.1-0.8s0-0.3-0.2-0.4l-1.5-0.4l0.1-0.6c1.2,0,2.3,0,3.5,0h2.3c1.8,0,3.8,0,5.8,0
			l0.1,0.1l-1.3,3.8l-0.6,0.1l-0.3-2.8h-4.3l-1.2,6.4h0.6c0.6,0,1.3,0,2.3,0c0.2,0,0.4-0.1,0.4-0.3l0.7-1.6h0.7
			c-0.4,1.7-0.7,3.3-1,4.9H121l-0.1-1.6c0-0.2-0.1-0.3-0.3-0.3c-0.7,0-1.4,0-2.3,0h-0.6L117,158.1L117,158.1z"/>
		<path class="st0" d="M133.6,159.5l0.4,0.6c-1.5,1.3-3.1,1.9-4.9,1.9c-1.4,0-2.5-0.4-3.4-1.1c-0.9-0.8-1.3-1.8-1.3-3.1
			c0-2,0.7-3.6,2.1-4.9c1.4-1.3,3.1-2,5.1-2c1.1,0,2,0.2,2.5,0.6s0.9,1,0.9,1.7c0,1-0.6,1.8-1.8,2.4c-1.2,0.6-3,1-5.4,1.1
			c0,0.2,0,0.4,0,0.5c0,1,0.2,1.8,0.6,2.4c0.4,0.5,1,0.8,1.9,0.8C131.4,160.4,132.5,160.1,133.6,159.5z M127.9,155.8
			c2.6-0.2,4-1.1,4-2.6c0-0.4-0.1-0.7-0.3-0.9c-0.2-0.2-0.4-0.3-0.7-0.3c-0.6,0-1.2,0.4-1.8,1C128.5,153.8,128.1,154.7,127.9,155.8
			L127.9,155.8z"/>
		<path class="st0" d="M138,145.9v-0.5c2-0.3,3.8-0.6,5.3-1l0.1,0.1c-0.1,0.3-0.1,0.6-0.2,1s-0.2,0.8-0.3,1.2
			c-0.1,0.4-0.2,0.9-0.3,1.4s-0.2,1-0.3,1.5l-2.1,10c0,0.1,0,0.3,0,0.4c0,0.2,0.1,0.4,0.3,0.5s0.7,0.2,1.5,0.2l-0.1,0.5
			c-1.3,0.3-2.4,0.5-3.2,0.5c-0.6,0-1.1-0.1-1.4-0.3s-0.5-0.6-0.5-1c0-0.1,0-0.4,0.1-0.8l2.8-13.6L138,145.9L138,145.9z"/>
		<path class="st0" d="M145.7,145.9v-0.5c2-0.3,3.8-0.6,5.3-1l0.1,0.1c-0.1,0.3-0.1,0.6-0.2,1s-0.2,0.8-0.3,1.2
			c-0.1,0.4-0.2,0.9-0.3,1.4c-0.1,0.5-0.2,1-0.3,1.5l-2.1,10c0,0.1,0,0.3,0,0.4c0,0.2,0.1,0.4,0.3,0.5c0.2,0.1,0.7,0.2,1.5,0.2
			l-0.1,0.5c-1.3,0.3-2.4,0.5-3.2,0.5c-0.6,0-1.1-0.1-1.4-0.3s-0.5-0.6-0.5-1c0-0.1,0-0.4,0.1-0.8l2.8-13.6L145.7,145.9L145.7,145.9
			z"/>
		<path class="st0" d="M158.6,150.9c1.7,0,3,0.4,4,1.3c1,0.9,1.5,2,1.5,3.5c0,1.8-0.6,3.4-1.8,4.6c-1.2,1.2-2.7,1.8-4.6,1.8
			c-1.7,0-3-0.4-4-1.3c-1-0.9-1.5-2-1.5-3.4c0-1.9,0.6-3.4,1.8-4.6C155.1,151.5,156.7,150.9,158.6,150.9L158.6,150.9z M158.5,152.1
			c-0.8,0-1.6,0.5-2.1,1.6s-0.8,2.3-0.8,3.7c0,1.1,0.2,1.9,0.6,2.5s0.9,0.9,1.6,0.9c0.9,0,1.6-0.5,2.1-1.6s0.8-2.3,0.8-3.7
			c0-1.1-0.2-1.9-0.6-2.5S159.2,152.1,158.5,152.1L158.5,152.1z"/>
		<path class="st0" d="M176.2,161.8l-1.6,0.2c-0.1-0.9-0.3-1.7-0.4-2.5s-0.3-1.6-0.4-2.4c-1.3,2-2.5,3.6-3.6,4.7l-1.6,0.2
			c-0.1-0.5-0.1-1-0.2-1.4c-0.1-0.5-0.1-0.9-0.2-1.4s-0.2-0.9-0.2-1.4c-0.1-0.5-0.2-0.9-0.2-1.4c0-0.2-0.1-0.5-0.2-0.8
			s-0.1-0.7-0.2-1c-0.1-0.4-0.2-0.7-0.3-1c-0.1-0.3-0.2-0.6-0.2-0.8c0-0.1-0.1-0.2-0.2-0.3s-0.2-0.2-0.3-0.2
			c-0.1-0.1-0.3-0.1-0.5-0.1s-0.5-0.1-0.9-0.1l0.1-0.5c1.3-0.4,2.3-0.5,3-0.5c0.5,0,0.8,0.1,1.1,0.2c0.3,0.1,0.5,0.3,0.6,0.6
			c0.1,0.2,0.1,0.4,0.2,0.7s0.2,0.6,0.2,0.9c0.1,0.3,0.2,0.7,0.2,1.1c0.1,0.4,0.1,0.8,0.2,1.1c0.1,0.4,0.1,0.7,0.2,1
			s0.1,0.6,0.1,0.8l0.2,1.3c0.9-1.2,1.6-2.3,2.3-3.5c-0.1-0.6-0.2-1.2-0.4-1.8c-0.1-0.6-0.3-1.2-0.4-1.9c1-0.2,1.9-0.4,2.8-0.6
			l0.2,0.1c0.5,1.7,0.9,3.8,1.3,6.4l0.2,1.3c0.7-1,1.2-2.2,1.6-3.3c0.4-1.2,0.6-2.4,0.6-3.7c0.6-0.1,1.1-0.3,1.6-0.4
			c0.5-0.1,1-0.3,1.5-0.4l0.2,0.1c0,0.5-0.1,1.1-0.4,1.7c-0.2,0.6-0.5,1.3-0.9,2s-0.8,1.4-1.3,2.1c-0.5,0.7-0.9,1.4-1.4,2
			s-0.9,1.2-1.4,1.7C176.9,161,176.5,161.5,176.2,161.8L176.2,161.8z"/>
		<path class="st0" d="M191.2,152.2c-0.5-0.1-0.9-0.2-1.3-0.2c-0.8,0-1.4,0.1-1.8,0.4s-0.6,0.7-0.6,1.2c0,0.2,0.1,0.4,0.2,0.6
			c0.1,0.2,0.3,0.3,0.5,0.5c0.2,0.1,0.4,0.3,0.7,0.4c0.3,0.1,0.5,0.3,0.8,0.4c0.3,0.2,0.7,0.3,1,0.5s0.6,0.4,0.9,0.6
			c0.3,0.2,0.5,0.5,0.6,0.8c0.2,0.3,0.3,0.7,0.3,1.1c0,1.1-0.4,2-1.3,2.6s-2.1,0.9-3.7,0.9c-0.7,0-1.5-0.1-2.2-0.2
			c-0.7-0.1-1.4-0.3-2-0.6c0.1-0.5,0.3-0.9,0.4-1.4s0.2-1,0.3-1.5l0.6-0.1l0.7,2.5c0.6,0.2,1.1,0.2,1.7,0.2c0.7,0,1.3-0.1,1.7-0.4
			c0.4-0.3,0.6-0.7,0.6-1.3c0-0.2-0.1-0.4-0.2-0.6c-0.1-0.2-0.3-0.3-0.5-0.5c-0.2-0.1-0.4-0.3-0.7-0.4c-0.3-0.1-0.5-0.3-0.8-0.4
			c-0.3-0.1-0.6-0.3-0.9-0.5s-0.6-0.4-0.8-0.6c-0.2-0.2-0.4-0.5-0.6-0.8c-0.1-0.3-0.2-0.7-0.2-1.1c0-1.1,0.5-1.9,1.4-2.5
			s2.2-0.9,3.8-0.9c1.2,0,2.4,0.2,3.5,0.5c-0.1,0.4-0.2,0.8-0.4,1.3c-0.1,0.5-0.2,1-0.3,1.6l-0.6,0.1L191.2,152.2z"/>
		<path class="st0" d="M195,161.8l3.2-15.6l-1.9-0.3v-0.5c2-0.3,3.8-0.6,5.3-1l0.1,0.1c-0.1,0.3-0.1,0.6-0.2,1s-0.2,0.8-0.3,1.2
			c-0.1,0.4-0.2,0.9-0.3,1.4s-0.2,1-0.3,1.5l-0.5,2.5c1.5-0.9,2.9-1.3,4.1-1.3c0.8,0,1.5,0.2,1.9,0.7c0.5,0.4,0.7,1,0.7,1.8
			c0,0.3,0,0.7-0.1,1.1l-1.1,5.4c0,0.1,0,0.1,0,0.2c0,0.1,0,0.1,0,0.2c0,0.2,0,0.3,0.1,0.4c0.1,0.1,0.2,0.2,0.3,0.2
			c0.1,0,0.3,0.1,0.6,0.1c0.2,0,0.5,0,0.8,0v0.5c-1.1,0.4-2.2,0.5-3.2,0.5c-0.6,0-1-0.1-1.3-0.3s-0.5-0.6-0.5-1.1
			c0-0.2,0-0.5,0.1-0.8l1-4.8c0.1-0.4,0.1-0.7,0.1-1c0-0.5-0.1-0.8-0.3-1c-0.2-0.2-0.5-0.3-0.9-0.3c-0.6,0-1.4,0.2-2.5,0.7l-1.7,8.4
			L195,161.8L195,161.8z"/>
		<path class="st0" d="M209.9,151.4c1.4-0.4,2.5-0.5,3.3-0.5c0.5,0,0.9,0.1,1.2,0.3c0.3,0.2,0.4,0.5,0.4,0.8c0,0.2,0,0.3,0,0.5
			l-1.5,7.2c0,0.2-0.1,0.3-0.1,0.4c0,0.3,0.1,0.5,0.4,0.6s0.7,0.1,1.4,0.1l-0.1,0.5c-1.3,0.3-2.4,0.5-3.2,0.5c-0.6,0-1-0.1-1.3-0.3
			s-0.5-0.6-0.5-1c0-0.2,0-0.5,0.1-0.8l1.4-6.7c0.1-0.3,0.1-0.5,0.1-0.6c0-0.2-0.1-0.4-0.3-0.4c-0.2-0.1-0.7-0.1-1.5-0.1
			L209.9,151.4L209.9,151.4z M215.7,146.9c0,0.5-0.2,0.9-0.5,1.3c-0.3,0.3-0.7,0.5-1.2,0.5s-0.9-0.2-1.2-0.5
			c-0.3-0.3-0.5-0.7-0.5-1.2s0.2-1,0.5-1.3s0.7-0.5,1.2-0.5s0.8,0.1,1.2,0.4C215.5,146,215.7,146.4,215.7,146.9L215.7,146.9z"/>
		<path class="st0" d="M214.9,166.7l1.4-0.4c0.2-0.1,0.3-0.2,0.4-0.4c0.1-0.3,0.1-0.6,0.2-1s0.2-0.9,0.3-1.5l2.1-10.3
			c0.1-0.3,0.1-0.5,0.1-0.6c0-0.2-0.1-0.4-0.3-0.4c-0.2-0.1-0.7-0.1-1.5-0.1l0.1-0.5c1.3-0.4,2.4-0.5,3.3-0.5c0.5,0,0.9,0.1,1.2,0.3
			c0.3,0.2,0.4,0.5,0.4,0.8v0.1l0,0c1.6-0.8,2.7-1.2,3.3-1.2c0.9,0,1.7,0.4,2.3,1.2c0.6,0.8,0.9,1.7,0.9,2.8c0,2.1-0.7,3.8-2,5.2
			c-1.3,1.3-3.1,2-5.2,2c-0.4,0-0.8,0-1.3-0.1l-0.5,2.4c-0.1,0.4-0.2,0.7-0.2,1s-0.1,0.5-0.1,0.6c0,0.2,0,0.4,0.2,0.4l1.7,0.4
			l-0.1,0.6c-1.5,0-2.7,0-3.4,0c-0.9,0-2,0-3.3,0V166.7L214.9,166.7z M220.9,160.8c0.3,0.1,0.6,0.1,0.9,0.1c1.3,0,2.3-0.6,3-1.7
			c0.7-1.1,1.1-2.4,1.1-3.8c0-0.8-0.1-1.5-0.3-2c-0.2-0.5-0.6-0.8-1.1-0.8c-0.6,0-1.3,0.2-2,0.7L220.9,160.8L220.9,160.8z"/>
		<path class="st0" d="M229.2,164.8c1.6-1.1,2.3-2.2,2.3-3.3c0-0.8-0.4-1.4-1.3-1.9c0-0.5,0.2-0.9,0.6-1.3c0.4-0.3,0.8-0.5,1.2-0.5
			c0.5,0,0.9,0.2,1.3,0.5s0.5,0.8,0.5,1.5c0,2-1.4,3.8-4.1,5.6L229.2,164.8L229.2,164.8z"/>
		<path class="st0" d="M248.5,158.1c-0.1,0.5-0.2,0.9-0.2,1.2c-0.1,0.4-0.1,0.7-0.2,1c0,0.2,0.1,0.3,0.3,0.4l1.5,0.4l-0.1,0.6
			c-1.4,0-2.6,0-3.7,0c-1.2,0-2.4,0-3.5,0l0.1-0.6l1.5-0.4c0.2-0.1,0.3-0.2,0.4-0.4c0.1-0.3,0.1-0.6,0.2-1s0.2-0.8,0.3-1.3l1.7-9.1
			c0.1-0.4,0.1-0.7,0.2-1.1c0.1-0.3,0.1-0.6,0.1-0.8s0-0.3-0.2-0.4l-1.5-0.4l0.1-0.6c1.2,0,2.3,0,3.5,0h2.3c1.8,0,3.8,0,5.8,0
			l0.1,0.1l-1.3,3.8l-0.6,0.1l-0.3-2.8h-4.3l-1.2,6.4h0.6c0.6,0,1.3,0,2.3,0c0.2,0,0.4-0.1,0.4-0.3l0.7-1.6h0.7
			c-0.4,1.7-0.7,3.3-1,4.9h-0.7l-0.1-1.6c0-0.2-0.1-0.3-0.3-0.3c-0.7,0-1.4,0-2.3,0h-0.6L248.5,158.1L248.5,158.1z"/>
		<path class="st0" d="M267.7,151c-0.3,0.9-0.6,2.1-0.9,3.6l-1,5.1c0,0.2-0.1,0.3-0.1,0.4c0,0.2,0,0.3,0.1,0.4s0.2,0.2,0.3,0.2
			c0.1,0.1,0.3,0.1,0.6,0.1s0.5,0,0.8,0l-0.1,0.5c-1.3,0.3-2.3,0.5-3,0.5c-0.6,0-1-0.1-1.3-0.4c-0.3-0.3-0.5-0.6-0.5-1.1v-0.2
			c-1.4,1.2-2.4,1.8-3,1.8c-1,0-1.9-0.4-2.6-1.2s-1-1.8-1-3c0-1.9,0.7-3.6,2-4.9c1.3-1.3,3-2,5-2c0.9,0,1.8,0.1,2.9,0.4
			c0.6-0.1,1.1-0.2,1.7-0.4L267.7,151L267.7,151z M264.1,152.2c-0.4-0.2-0.9-0.3-1.4-0.3c-1,0-1.8,0.6-2.5,1.7c-0.7,1.1-1,2.4-1,3.7
			c0,0.8,0.1,1.5,0.4,2s0.5,0.9,0.8,0.9c0.4,0,1.2-0.4,2.3-1.2L264.1,152.2L264.1,152.2z"/>
		<path class="st0" d="M270.2,151.4c1.4-0.4,2.5-0.5,3.3-0.5c0.5,0,0.9,0.1,1.2,0.3c0.3,0.2,0.4,0.5,0.4,0.8c0,0.2,0,0.3,0,0.5
			l-1.5,7.2c0,0.2-0.1,0.3-0.1,0.4c0,0.3,0.1,0.5,0.4,0.6s0.7,0.1,1.4,0.1l-0.1,0.5c-1.3,0.3-2.4,0.5-3.2,0.5c-0.6,0-1-0.1-1.3-0.3
			s-0.5-0.6-0.5-1c0-0.2,0-0.5,0.1-0.8l1.4-6.7c0.1-0.3,0.1-0.5,0.1-0.6c0-0.2-0.1-0.4-0.3-0.4c-0.2-0.1-0.7-0.1-1.5-0.1
			L270.2,151.4L270.2,151.4z M276,146.9c0,0.5-0.2,0.9-0.5,1.3c-0.3,0.3-0.7,0.5-1.2,0.5s-0.8-0.2-1.2-0.5c-0.3-0.3-0.5-0.7-0.5-1.2
			s0.2-1,0.5-1.3s0.7-0.5,1.2-0.5s0.8,0.1,1.2,0.4C275.8,146,276,146.4,276,146.9L276,146.9z"/>
		<path class="st0" d="M281.9,148.5l1.9-0.3l0.1,0.1c-0.4,1.4-0.6,2.5-0.7,3.1h3.2l-0.2,1.2h-3.3c-0.2,1-0.4,2-0.7,3
			c-0.2,1-0.4,2-0.7,3c-0.1,0.3-0.1,0.6-0.1,0.9c0,0.4,0.1,0.7,0.3,0.9s0.5,0.3,0.9,0.3c0.5,0,1.2-0.1,2.1-0.4l0.1,0.7
			c-1.4,0.7-2.7,1-4,1c-0.9,0-1.5-0.2-2-0.5c-0.5-0.4-0.7-0.9-0.7-1.6c0-0.2,0-0.5,0.1-0.8c0.1-0.7,0.3-1.6,0.6-2.7
			c0.2-1.1,0.5-2.4,0.9-4l-1.6-0.4v-0.5l2-0.2L281.9,148.5L281.9,148.5z"/>
		<path class="st0" d="M287.3,161.8l3.2-15.6l-1.9-0.3v-0.5c2-0.3,3.8-0.6,5.3-1l0.1,0.1c-0.1,0.3-0.1,0.6-0.2,1s-0.2,0.8-0.3,1.2
			c-0.1,0.4-0.2,0.9-0.3,1.4s-0.2,1-0.3,1.5l-0.5,2.5c1.5-0.9,2.9-1.3,4.1-1.3c0.8,0,1.5,0.2,1.9,0.7c0.5,0.4,0.7,1,0.7,1.8
			c0,0.3,0,0.7-0.1,1.1l-1.1,5.4c0,0.1,0,0.1,0,0.2c0,0.1,0,0.1,0,0.2c0,0.2,0,0.3,0.1,0.4c0.1,0.1,0.2,0.2,0.3,0.2
			c0.1,0,0.3,0.1,0.6,0.1c0.2,0,0.5,0,0.8,0v0.5c-1.1,0.4-2.2,0.5-3.2,0.5c-0.6,0-1-0.1-1.3-0.3s-0.5-0.6-0.5-1.1
			c0-0.2,0-0.5,0.1-0.8l1-4.8c0.1-0.4,0.1-0.7,0.1-1c0-0.5-0.1-0.8-0.3-1c-0.2-0.2-0.5-0.3-0.9-0.3c-0.6,0-1.4,0.2-2.5,0.7l-1.7,8.4
			L287.3,161.8L287.3,161.8z"/>
		<path class="st0" d="M319.1,151c-0.3,0.9-0.6,2.1-0.9,3.6l-1,5.1c0,0.2-0.1,0.3-0.1,0.4c0,0.2,0,0.3,0.1,0.4
			c0.1,0.1,0.2,0.2,0.3,0.2c0.1,0.1,0.3,0.1,0.6,0.1s0.5,0,0.8,0l-0.1,0.5c-1.3,0.3-2.3,0.5-3,0.5c-0.6,0-1-0.1-1.3-0.4
			c-0.3-0.3-0.5-0.6-0.5-1.1v-0.2c-1.4,1.2-2.4,1.8-3,1.8c-1,0-1.9-0.4-2.6-1.2s-1-1.8-1-3c0-1.9,0.7-3.6,2-4.9c1.3-1.3,3-2,5-2
			c0.9,0,1.8,0.1,2.9,0.4c0.6-0.1,1.1-0.2,1.7-0.4L319.1,151L319.1,151z M315.6,152.2c-0.4-0.2-0.9-0.3-1.4-0.3
			c-1,0-1.8,0.6-2.5,1.7c-0.7,1.1-1,2.4-1,3.7c0,0.8,0.1,1.5,0.4,2s0.5,0.9,0.8,0.9c0.4,0,1.2-0.4,2.3-1.2L315.6,152.2L315.6,152.2z
			"/>
		<path class="st0" d="M321.5,161.8l1.8-8.7c0.1-0.3,0.1-0.5,0.1-0.6s0-0.2-0.1-0.3s-0.2-0.1-0.3-0.2c-0.1,0-0.3-0.1-0.5-0.1
			s-0.5,0-0.8,0l0.1-0.5c1.4-0.4,2.4-0.5,3.1-0.5c0.5,0,1,0.1,1.3,0.3s0.5,0.5,0.5,0.8c0,0,0,0.1,0,0.2c1.5-0.9,2.9-1.4,4.2-1.4
			c0.8,0,1.5,0.2,1.9,0.7c0.5,0.4,0.7,1,0.7,1.8c0,0.3,0,0.7-0.1,1.1l-1.1,5.4c0,0.1,0,0.1,0,0.2c0,0.1,0,0.1,0,0.2
			c0,0.2,0,0.3,0.1,0.4c0.1,0.1,0.2,0.2,0.3,0.2s0.3,0.1,0.6,0.1c0.2,0,0.5,0,0.8,0v0.5c-1.1,0.4-2.2,0.5-3.2,0.5
			c-0.6,0-1-0.1-1.3-0.3s-0.5-0.6-0.5-1.1c0-0.2,0-0.5,0.1-0.8l1-4.8c0.1-0.4,0.1-0.7,0.1-1c0-0.5-0.1-0.8-0.3-1
			c-0.2-0.2-0.5-0.3-0.9-0.3c-0.6,0-1.4,0.2-2.5,0.7l-1.7,8.4L321.5,161.8L321.5,161.8z"/>
		<path class="st0" d="M343.6,145.9v-0.5c2-0.3,3.8-0.6,5.3-1l0.1,0.1c-0.1,0.3-0.1,0.6-0.2,1s-0.2,0.8-0.3,1.2
			c-0.1,0.4-0.2,0.9-0.3,1.4s-0.2,1-0.3,1.5l-1.3,6.4l-0.7,3.6c0,0.2-0.1,0.3-0.1,0.4c0,0.2,0,0.3,0.1,0.4c0.1,0.1,0.2,0.2,0.3,0.2
			s0.3,0.1,0.6,0.1c0.2,0,0.5,0,0.8,0l-0.1,0.5c-1.3,0.3-2.3,0.5-3,0.5c-0.6,0-1-0.1-1.3-0.4s-0.5-0.6-0.5-1.1V160
			c-1.4,1.2-2.4,1.8-3.1,1.8c-1,0-1.9-0.4-2.6-1.2s-1-1.8-1-3c0-1.9,0.7-3.6,2-4.9c1.3-1.3,3-2,5-2c0.5,0,1,0,1.6,0.1l1-4.8
			L343.6,145.9L343.6,145.9z M344.2,152.2c-0.5-0.2-1-0.3-1.5-0.3c-1,0-1.8,0.6-2.5,1.7c-0.6,1.1-1,2.4-1,3.7c0,0.8,0.1,1.5,0.4,2
			s0.5,0.9,0.8,0.9c0.4,0,1.2-0.4,2.3-1.2L344.2,152.2L344.2,152.2z"/>
		<path class="st0" d="M360.6,158.1c-0.1,0.5-0.2,0.9-0.2,1.2c-0.1,0.4-0.1,0.7-0.2,1c0,0.2,0.1,0.3,0.3,0.4l1.5,0.4l-0.1,0.6
			c-1.4,0-2.6,0-3.7,0c-1.2,0-2.4,0-3.5,0l0.1-0.6l1.5-0.4c0.2-0.1,0.3-0.2,0.4-0.4c0.1-0.3,0.1-0.6,0.2-1s0.2-0.8,0.3-1.3l1.7-9.1
			c0.1-0.4,0.1-0.7,0.2-1.1s0.1-0.6,0.1-0.8s0-0.3-0.2-0.4l-1.5-0.4l0.1-0.6c1.2,0,2.3,0,3.5,0h2.3c1.8,0,3.8,0,5.8,0l0.1,0.1
			l-1.3,3.8l-0.6,0.1l-0.3-2.8h-4.3l-1.2,6.4h0.6c0.6,0,1.3,0,2.3,0c0.2,0,0.4-0.1,0.4-0.3l0.7-1.6h0.7c-0.4,1.7-0.7,3.3-1,4.9h-0.7
			l-0.1-1.6c0-0.2-0.1-0.3-0.3-0.3c-0.7,0-1.4,0-2.3,0h-0.6L360.6,158.1L360.6,158.1z"/>
		<path class="st0" d="M374.5,150.9c1.7,0,3,0.4,4,1.3c1,0.9,1.5,2,1.5,3.5c0,1.8-0.6,3.4-1.8,4.6c-1.2,1.2-2.7,1.8-4.6,1.8
			c-1.7,0-3-0.4-4-1.3c-1-0.9-1.5-2-1.5-3.4c0-1.9,0.6-3.4,1.8-4.6C371,151.5,372.5,150.9,374.5,150.9L374.5,150.9z M374.3,152.1
			c-0.8,0-1.6,0.5-2.1,1.6s-0.8,2.3-0.8,3.7c0,1.1,0.2,1.9,0.6,2.5c0.4,0.6,0.9,0.9,1.6,0.9c0.9,0,1.6-0.5,2.1-1.6s0.8-2.3,0.8-3.7
			c0-1.1-0.2-1.9-0.6-2.5S375,152.1,374.3,152.1L374.3,152.1z"/>
		<path class="st0" d="M382.2,161.8l1.8-8.7c0.1-0.3,0.1-0.5,0.1-0.6s0-0.2-0.1-0.3s-0.2-0.1-0.3-0.2c-0.1,0-0.3-0.1-0.5-0.1
			s-0.5,0-0.8,0l0.1-0.5c1.4-0.4,2.4-0.5,3.1-0.5c0.5,0,0.9,0.1,1.3,0.3c0.3,0.2,0.5,0.5,0.5,0.8c0,0.1,0,0.2,0,0.3
			c1.4-0.9,2.8-1.4,4.2-1.4l0.1,0.1c-0.3,1.2-0.5,2.5-0.8,3.8l-0.7,0.1c-0.1-0.8-0.3-1.4-0.5-1.7s-0.5-0.5-0.9-0.5s-0.9,0.2-1.6,0.5
			l-1.7,8.4L382.2,161.8z"/>
		<path class="st0" d="M401.4,159.5l0.4,0.6c-1.5,1.3-3.1,1.9-4.9,1.9c-1.4,0-2.5-0.4-3.4-1.1c-0.9-0.8-1.3-1.8-1.3-3.1
			c0-2,0.7-3.6,2.1-4.9c1.4-1.3,3.1-2,5.1-2c1.1,0,2,0.2,2.5,0.6c0.6,0.4,0.9,1,0.9,1.7c0,1-0.6,1.8-1.8,2.4c-1.2,0.6-3,1-5.4,1.1
			c0,0.2,0,0.4,0,0.5c0,1,0.2,1.8,0.6,2.4c0.4,0.5,1,0.8,1.9,0.8C399.2,160.4,400.3,160.1,401.4,159.5L401.4,159.5z M395.7,155.8
			c2.6-0.2,4-1.1,4-2.6c0-0.4-0.1-0.7-0.3-0.9s-0.4-0.3-0.7-0.3c-0.6,0-1.2,0.4-1.8,1C396.3,153.8,395.9,154.7,395.7,155.8
			L395.7,155.8z"/>
		<path class="st0" d="M408.9,161.8l-1.6,0.2c-0.2-1.2-0.4-2.8-0.8-4.9s-0.7-3.5-1-4.3c0-0.1-0.1-0.2-0.2-0.3
			c-0.1-0.1-0.2-0.2-0.3-0.2c-0.1-0.1-0.3-0.1-0.5-0.1s-0.5-0.1-0.9-0.1l0.1-0.5c1.4-0.4,2.4-0.5,3-0.5c0.5,0,0.8,0.1,1.1,0.2
			c0.3,0.1,0.5,0.3,0.6,0.6c0.1,0.2,0.1,0.4,0.2,0.7c0.1,0.3,0.2,0.6,0.2,0.9c0.1,0.3,0.2,0.7,0.2,1.1c0.1,0.4,0.1,0.8,0.2,1.1
			c0.1,0.4,0.1,0.7,0.2,1c0.1,0.3,0.1,0.6,0.1,0.8l0.1,1.3c0.7-1,1.3-2.1,1.7-3.3s0.7-2.4,0.7-3.7c0.6-0.1,1.1-0.3,1.6-0.4
			c0.5-0.1,1-0.3,1.5-0.4l0.2,0.1c0,0.5-0.1,1.1-0.4,1.7c-0.2,0.6-0.5,1.3-0.9,2s-0.8,1.4-1.3,2.1c-0.5,0.7-1,1.4-1.5,2
			s-1,1.2-1.4,1.7C409.6,161,409.2,161.5,408.9,161.8L408.9,161.8z"/>
		<path class="st0" d="M425.5,159.5l0.4,0.6c-1.5,1.3-3.1,1.9-4.9,1.9c-1.4,0-2.5-0.4-3.4-1.1c-0.9-0.8-1.3-1.8-1.3-3.1
			c0-2,0.7-3.6,2.1-4.9c1.4-1.3,3.1-2,5.1-2c1.1,0,2,0.2,2.5,0.6c0.6,0.4,0.9,1,0.9,1.7c0,1-0.6,1.8-1.8,2.4c-1.2,0.6-3,1-5.4,1.1
			c0,0.2,0,0.4,0,0.5c0,1,0.2,1.8,0.6,2.4c0.4,0.5,1,0.8,1.9,0.8C423.3,160.4,424.4,160.1,425.5,159.5L425.5,159.5z M419.8,155.8
			c2.6-0.2,4-1.1,4-2.6c0-0.4-0.1-0.7-0.3-0.9s-0.4-0.3-0.7-0.3c-0.6,0-1.2,0.4-1.8,1C420.4,153.8,420,154.7,419.8,155.8
			L419.8,155.8z"/>
		<path class="st0" d="M428.9,161.8l1.8-8.7c0.1-0.3,0.1-0.5,0.1-0.6s0-0.2-0.1-0.3s-0.2-0.1-0.3-0.2c-0.1,0-0.3-0.1-0.5-0.1
			s-0.5,0-0.8,0l0.1-0.5c1.4-0.4,2.4-0.5,3.1-0.5c0.5,0,0.9,0.1,1.3,0.3c0.3,0.2,0.5,0.5,0.5,0.8c0,0.1,0,0.2,0,0.3
			c1.4-0.9,2.8-1.4,4.2-1.4l0.1,0.1c-0.3,1.2-0.5,2.5-0.8,3.8l-0.7,0.1c-0.1-0.8-0.3-1.4-0.5-1.7s-0.5-0.5-0.9-0.5s-0.9,0.2-1.6,0.5
			l-1.7,8.4L428.9,161.8z"/>
		<path class="st0" d="M451.7,148.9L450,158c-0.2,0.8-0.3,1.7-0.5,2.5h4.6l2.1-3.3l0.7-0.1l-1,4.5l-0.1,0.1c-1.7,0-3.5,0-5.3,0h-2.9
			c-1.1,0-2.3,0-3.6,0l0.1-0.6l1.5-0.4c0.2-0.1,0.3-0.2,0.4-0.4c0.1-0.3,0.1-0.6,0.2-1c0.1-0.4,0.2-0.8,0.3-1.3l1.7-9.1
			c0.1-0.4,0.1-0.7,0.2-1.1c0.1-0.3,0.1-0.6,0.1-0.8s0-0.3-0.2-0.4l-1.5-0.4l0.1-0.6c1.3,0,2.5,0,3.6,0s2.2,0,3.5,0l-0.1,0.6
			l-1.6,0.4c-0.2,0-0.3,0.2-0.4,0.4c-0.1,0.3-0.2,0.7-0.3,1.2C451.7,148.7,451.7,148.9,451.7,148.9L451.7,148.9z"/>
		<path class="st0" d="M465.3,150.9c1.7,0,3,0.4,4,1.3c1,0.9,1.5,2,1.5,3.5c0,1.8-0.6,3.4-1.8,4.6c-1.2,1.2-2.7,1.8-4.6,1.8
			c-1.7,0-3-0.4-4-1.3c-1-0.9-1.5-2-1.5-3.4c0-1.9,0.6-3.4,1.8-4.6C461.8,151.5,463.3,150.9,465.3,150.9L465.3,150.9z M465.1,152.1
			c-0.8,0-1.6,0.5-2.1,1.6c-0.6,1-0.8,2.3-0.8,3.7c0,1.1,0.2,1.9,0.6,2.5c0.4,0.6,0.9,0.9,1.6,0.9c0.9,0,1.6-0.5,2.1-1.6
			s0.8-2.3,0.8-3.7c0-1.1-0.2-1.9-0.6-2.5S465.8,152.1,465.1,152.1L465.1,152.1z"/>
		<path class="st0" d="M476.9,161.8l-1.6,0.2c-0.2-1.2-0.4-2.8-0.8-4.9s-0.7-3.5-1-4.3c0-0.1-0.1-0.2-0.2-0.3
			c-0.1-0.1-0.2-0.2-0.3-0.2c-0.1-0.1-0.3-0.1-0.5-0.1s-0.5-0.1-0.9-0.1l0.1-0.5c1.4-0.4,2.4-0.5,3-0.5c0.5,0,0.8,0.1,1.1,0.2
			c0.3,0.1,0.5,0.3,0.6,0.6c0.1,0.2,0.1,0.4,0.2,0.7c0.1,0.3,0.2,0.6,0.2,0.9c0.1,0.3,0.2,0.7,0.2,1.1c0.1,0.4,0.1,0.8,0.2,1.1
			c0.1,0.4,0.1,0.7,0.2,1c0.1,0.3,0.1,0.6,0.1,0.8l0.1,1.3c0.7-1,1.3-2.1,1.7-3.3s0.7-2.4,0.7-3.7c0.6-0.1,1.1-0.3,1.6-0.4
			c0.5-0.1,1-0.3,1.5-0.4l0.2,0.1c0,0.5-0.1,1.1-0.4,1.7s-0.5,1.3-0.9,2s-0.8,1.4-1.3,2.1c-0.5,0.7-1,1.4-1.5,2s-1,1.2-1.4,1.7
			C477.6,161,477.2,161.5,476.9,161.8L476.9,161.8z"/>
		<path class="st0" d="M493.5,159.5l0.4,0.6c-1.5,1.3-3.1,1.9-4.9,1.9c-1.4,0-2.5-0.4-3.4-1.1c-0.9-0.8-1.3-1.8-1.3-3.1
			c0-2,0.7-3.6,2.1-4.9c1.4-1.3,3.1-2,5.1-2c1.1,0,2,0.2,2.5,0.6c0.6,0.4,0.9,1,0.9,1.7c0,1-0.6,1.8-1.8,2.4s-3,1-5.4,1.1
			c0,0.2,0,0.4,0,0.5c0,1,0.2,1.8,0.6,2.4c0.4,0.5,1,0.8,1.9,0.8C491.2,160.4,492.3,160.1,493.5,159.5L493.5,159.5z M487.8,155.8
			c2.6-0.2,4-1.1,4-2.6c0-0.4-0.1-0.7-0.3-0.9s-0.4-0.3-0.7-0.3c-0.6,0-1.2,0.4-1.8,1C488.4,153.8,488,154.7,487.8,155.8
			L487.8,155.8z"/>
	</g>
</g>
</svg>
